<svg viewBox="0 0 64 64" xmlns="http://www.w3.org/2000/svg"><path d="M10 46H6a5.006 5.006 0 0 1-5-5V31a5.006 5.006 0 0 1 5-5h4a1 1 0 0 1 0 2H6a3 3 0 0 0-3 3v10a3 3 0 0 0 3 3h4a1 1 0 0 1 0 2Z" fill="#cb692b" class="fill-363636"></path><path d="M10 42H6a1 1 0 0 1-1-1V31a1 1 0 0 1 1-1h4a1 1 0 0 1 0 2H7v8h3a1 1 0 0 1 0 2ZM30 29a1 1 0 0 1-1-1v-3a1 1 0 0 1 2 0v3a1 1 0 0 1-1 1ZM10 29a1 1 0 0 1-1-1v-3a1 1 0 0 1 2 0v3a1 1 0 0 1-1 1Z" fill="#cb692b" class="fill-363636"></path><path d="M26 28a2 2 0 0 1-4 0H9v21a3 3 0 0 0 3 3h16a3 3 0 0 0 3-3V28Z" fill="#cb692b" class="fill-ffbd4a"></path><path d="M26 47a1 1 0 0 1-1-1V34a1 1 0 0 1 2 0v12a1 1 0 0 1-1 1ZM20 47a1 1 0 0 1-1-1V34a1 1 0 0 1 2 0v12a1 1 0 0 1-1 1ZM14 47a1 1 0 0 1-1-1V34a1 1 0 0 1 2 0v12a1 1 0 0 1-1 1ZM58 52h-4a1 1 0 0 1 0-2h4a3 3 0 0 0 3-3V37a3 3 0 0 0-3-3h-4a1 1 0 0 1 0-2h4a5.006 5.006 0 0 1 5 5v10a5.006 5.006 0 0 1-5 5Z" fill="#cb692b" class="fill-363636"></path><path d="M58 48h-4a1 1 0 0 1 0-2h3v-8h-3a1 1 0 0 1 0-2h4a1 1 0 0 1 1 1v10a1 1 0 0 1-1 1ZM54 35a1 1 0 0 1-1-1v-3a1 1 0 0 1 2 0v3a1 1 0 0 1-1 1ZM34 35a1 1 0 0 1-1-1v-3a1 1 0 0 1 2 0v3a1 1 0 0 1-1 1Z" fill="#cb692b" class="fill-363636"></path><path d="M50 34a2 2 0 0 1-4 0H33v21a3 3 0 0 0 3 3h16a3 3 0 0 0 3-3V34Z" fill="#cb692b" class="fill-ffbd4a"></path><path d="M48 37a3 3 0 0 1-3-3v-3a1 1 0 0 0-1-1h-8a1 1 0 0 0-1 1 1 1 0 0 1-2 0 3 3 0 0 1 3-3h8a3 3 0 0 1 3 3v3a1 1 0 0 0 2 0v-3a3 3 0 0 1 6 0 1 1 0 0 1-2 0 1 1 0 0 0-2 0v3a3 3 0 0 1-3 3ZM28 20a1 1 0 0 1-.916-.6 2.111 2.111 0 0 0-2.877-1.051A1 1 0 0 1 22.8 17.7a2.748 2.748 0 0 0-5.022-.739 1 1 0 0 1-1.431.3 2.105 2.105 0 0 0-1.216-.388A2.13 2.13 0 0 0 13 19a1 1 0 0 1-2 0 4.125 4.125 0 0 1 5.634-3.842 4.748 4.748 0 0 1 7.722 1.042 4.152 4.152 0 0 1 4.56 2.4 1 1 0 0 1-.515 1.317A.982.982 0 0 1 28 20ZM24 31a3 3 0 0 1-3-3v-3a1 1 0 0 0-1-1h-8a1 1 0 0 0-1 1 1 1 0 0 1-2 0 3 3 0 0 1 3-3h8a3 3 0 0 1 3 3v3a1 1 0 0 0 2 0v-3a3 3 0 0 1 6 0 1 1 0 0 1-2 0 1 1 0 0 0-2 0v3a3 3 0 0 1-3 3ZM36 26a.982.982 0 0 1-.4-.084 1 1 0 0 1-.515-1.317 4.149 4.149 0 0 1 4.56-2.4 4.748 4.748 0 0 1 7.722-1.043A4.125 4.125 0 0 1 53 25a1 1 0 0 1-2 0 2.13 2.13 0 0 0-2.128-2.128 2.105 2.105 0 0 0-1.216.388.994.994 0 0 1-.781.16 1 1 0 0 1-.65-.462 2.748 2.748 0 0 0-5.025.742 1 1 0 0 1-1.41.653 2.111 2.111 0 0 0-2.874 1.047A1 1 0 0 1 36 26Z" fill="#cb692b" class="fill-363636"></path><path d="M48 37a3 3 0 0 1-3-3v-3a1 1 0 0 0-1-1h-8a1 1 0 0 0-1 1 1 1 0 0 1-2 0 3 3 0 0 1 3-3h8a3 3 0 0 1 3 3v3a1 1 0 0 0 2 0v-3a3 3 0 0 1 6 0 1 1 0 0 1-2 0 1 1 0 0 0-2 0v3a3 3 0 0 1-3 3ZM50 53a1 1 0 0 1-1-1V40a1 1 0 0 1 2 0v12a1 1 0 0 1-1 1ZM44 53a1 1 0 0 1-1-1V40a1 1 0 0 1 2 0v12a1 1 0 0 1-1 1ZM38 53a1 1 0 0 1-1-1V40a1 1 0 0 1 2 0v12a1 1 0 0 1-1 1ZM36 18a3 3 0 1 1 3-3 3 3 0 0 1-3 3Zm0-4a1 1 0 1 0 1 1 1 1 0 0 0-1-1ZM42 8a3 3 0 1 1 3-3 3 3 0 0 1-3 3Zm0-4a1 1 0 1 0 1 1 1 1 0 0 0-1-1ZM27.5 11A3.5 3.5 0 1 1 31 7.5a3.5 3.5 0 0 1-3.5 3.5Zm0-5A1.5 1.5 0 1 0 29 7.5 1.5 1.5 0 0 0 27.5 6Z" fill="#cb692b" class="fill-363636"></path></svg>